<svg width="33" height="30" viewBox="0 0 33 30" fill="none" xmlns="http://www.w3.org/2000/svg">
<path d="M0.0273634 17.4203C0.0273634 13.8457 0.0704842 10.2667 0.00149099 6.69211C-0.0243815 5.43153 0.277464 4.9511 1.61421 4.96873C7.53469 5.03925 13.4552 5.03484 19.38 4.96873C20.7038 4.95551 21.0186 5.46679 21.0099 6.71415C20.9668 13.9206 20.9711 21.1271 21.0099 28.3336C21.0142 29.5236 20.665 30.004 19.4446 29.9952C13.4681 29.9512 7.49588 29.9467 1.51934 29.9952C0.260216 30.004 -0.0114452 29.4663 0.00580307 28.3071C0.0618601 24.6752 0.0273634 21.0477 0.0273634 17.4159V17.4203ZM19.4964 17.5657C19.4964 14.3217 19.4619 11.0733 19.5179 7.82928C19.5352 6.79789 19.3196 6.39239 18.1985 6.40561C13.0326 6.46732 7.86241 6.45851 2.69654 6.41002C1.70907 6.40121 1.40723 6.6877 1.41585 7.70586C1.45466 14.1983 1.4676 20.6863 1.40723 27.1788C1.39429 28.3732 1.87293 28.4922 2.8259 28.4878C7.94002 28.4526 13.0541 28.4437 18.164 28.4922C19.2032 28.501 19.5438 28.2278 19.5223 27.1303C19.4533 23.9436 19.4964 20.748 19.4964 17.5613V17.5657Z" fill="#050505"/>
<path d="M25.1658 12.5546C25.1658 16.1291 25.1744 19.7081 25.1572 23.2827C25.1572 23.8557 25.3771 24.6447 24.6268 24.843C23.7515 25.0766 22.8157 25.1075 21.9318 24.7857C21.6472 24.6843 21.5954 24.3626 21.6558 24.0805C21.7507 23.6265 22.1042 23.4414 22.5053 23.5075C23.6135 23.6926 23.6911 23.0711 23.6868 22.172C23.6609 15.7369 23.6566 9.29732 23.6868 2.86218C23.6911 1.85284 23.5057 1.4297 22.3802 1.44293C17.2661 1.50904 12.152 1.50463 7.03785 1.44293C5.88221 1.4297 5.49843 1.82639 5.61055 2.95034C5.66661 3.53655 5.70973 4.31229 4.82575 4.24618C4.08407 4.18888 4.20912 3.47484 4.20912 2.94152C4.23068 -0.500835 3.92021 0.0368949 7.01197 0.023672C12.3417 0.0016339 17.6714 0.0192644 23.0012 0.0192644C24.4414 0.0192644 25.1629 0.731831 25.1658 2.15696C25.1658 5.62136 25.1658 9.09016 25.1658 12.5546Z" fill="#050505"/>
<path d="M32.079 15.1287C32.079 17.1077 31.9411 19.0956 32.1135 21.0614C32.3205 23.4062 31.3977 25.3412 30.4275 27.2982C29.9359 28.2943 29.3495 28.356 28.8493 27.3202C27.9265 25.4073 27.0641 23.5473 27.146 21.2509C27.3099 16.6405 27.1892 12.0213 27.1978 7.40654C27.1978 5.49804 27.7109 5.0132 29.6169 5.00879C31.5357 5.00879 32.0618 5.49363 32.0747 7.38009C32.092 9.96296 32.079 12.5458 32.079 15.1287V15.1287ZM29.6513 25.4117C30.2249 24.3803 30.7294 23.4988 30.7207 22.3881C30.6992 18.6504 30.7035 14.9127 30.7207 11.1707C30.7207 10.4214 30.669 9.94974 29.7117 9.94533C28.7501 9.94092 28.5431 10.3023 28.5518 11.1971C28.5906 14.6615 28.6078 18.1259 28.5518 21.5859C28.5259 22.9655 28.7976 24.1908 29.6557 25.4117H29.6513ZM30.6992 7.51673C30.8329 6.60435 30.3801 6.4016 29.5824 6.38838C28.6423 6.37075 28.582 6.89085 28.5561 7.63133C28.5259 8.47759 28.9226 8.601 29.6255 8.61863C30.4491 8.64067 30.8587 8.39825 30.6992 7.51673Z" fill="#050505"/>
<path d="M15.6887 11.3604H11.5879C11.4068 11.3604 11.2559 11.5102 11.2559 11.6997V12.0171C11.2559 12.2022 11.4025 12.3565 11.5879 12.3565H15.6887C15.8698 12.3565 16.0207 12.2066 16.0207 12.0171V11.6997C16.0207 11.5146 15.8741 11.3604 15.6887 11.3604Z" fill="#050505"/>
<path d="M15.6887 13.2686H11.5879C11.4068 13.2686 11.2559 13.4184 11.2559 13.6079V13.9253C11.2559 14.1104 11.4025 14.2647 11.5879 14.2647H15.6887C15.8698 14.2647 16.0207 14.1148 16.0207 13.9253V13.6079C16.0207 13.4228 15.8741 13.2686 15.6887 13.2686Z" fill="#050505"/>
<path d="M16.3574 18.1519H4.56389C4.03782 18.1519 3.61523 18.3546 3.61523 18.6058V19.029C3.61523 19.2802 4.04213 19.483 4.56389 19.483H16.3574C16.8835 19.483 17.3061 19.2802 17.3061 19.029V18.6058C17.3061 18.3546 16.8792 18.1519 16.3574 18.1519Z" fill="#050505"/>
<path d="M16.3574 21.1758H4.56389C4.03782 21.1758 3.61523 21.3785 3.61523 21.6298V22.0529C3.61523 22.3041 4.04213 22.5069 4.56389 22.5069H16.3574C16.8835 22.5069 17.3061 22.3041 17.3061 22.0529V21.6298C17.3061 21.3785 16.8792 21.1758 16.3574 21.1758Z" fill="#050505"/>
<path d="M16.3574 24.2041H4.56389C4.03782 24.2041 3.61523 24.4069 3.61523 24.6581V25.0812C3.61523 25.3325 4.04213 25.5352 4.56389 25.5352H16.3574C16.8835 25.5352 17.3061 25.3325 17.3061 25.0812V24.6581C17.3061 24.4069 16.8792 24.2041 16.3574 24.2041Z" fill="#050505"/>
<path d="M15.6887 9.44727H11.5879C11.4068 9.44727 11.2559 9.59713 11.2559 9.78665V10.104C11.2559 10.2891 11.4025 10.4434 11.5879 10.4434H15.6887C15.8698 10.4434 16.0207 10.2935 16.0207 10.104V9.78665C16.0207 9.60153 15.8741 9.44727 15.6887 9.44727Z" fill="#050505"/>
<path d="M8.18944 9.83936H4.50261C4.33875 9.83936 4.20508 9.97599 4.20508 10.1435V10.4256C4.20508 10.5931 4.33875 10.7297 4.50261 10.7297H5.86092V13.5902C5.86092 13.7445 6.00753 13.8679 6.19295 13.8679H6.50341C6.68452 13.8679 6.83544 13.7445 6.83544 13.5902V10.7297H8.19375C8.35761 10.7297 8.49128 10.5931 8.49128 10.4256V10.1435C8.49128 9.97599 8.35761 9.83936 8.19375 9.83936H8.18944Z" fill="#050505"/>
</svg>
