<svg width="38" height="39" viewBox="0 0 38 39" fill="none" xmlns="http://www.w3.org/2000/svg">
<path d="M28.8542 23.3387C28.1284 25.1044 26.9147 26.6269 25.3552 27.728C23.7956 28.8292 21.9548 29.4634 20.0479 29.5564C18.1411 29.6495 16.2472 29.1976 14.5879 28.2535C12.9285 27.3095 11.5724 25.9125 10.678 24.2258C9.78372 22.5392 9.38825 20.6327 9.5379 18.7295C9.68755 16.8263 10.3761 15.005 11.5231 13.4789C12.67 11.9527 14.2279 10.7848 16.0144 10.1117C17.8009 9.43867 19.7421 9.28831 21.611 9.67826C20.1051 10.7911 19.0487 12.4074 18.6338 14.2332C18.219 16.0591 18.4732 17.9732 19.3504 19.6274C20.2275 21.2817 21.6693 22.5662 23.4134 23.2472C25.1575 23.9283 27.0882 23.9608 28.8542 23.3387V23.3387Z" stroke="#050505" stroke-linecap="round" stroke-linejoin="round"/>
<path d="M37.5 19.5C37.5 30.0057 29.2051 38.5 19 38.5C8.7949 38.5 0.5 30.0057 0.5 19.5C0.5 8.99427 8.7949 0.5 19 0.5C29.2051 0.5 37.5 8.99427 37.5 19.5Z" stroke="#050505"/>
</svg>
