<svg width="30" height="30" viewBox="0 0 30 30" fill="none" xmlns="http://www.w3.org/2000/svg">
<path d="M5.42044 4.52541C3.58183 5.69487 2.67624 7.22144 2.63312 9.43479C2.94282 9.29743 3.09963 9.21895 3.26428 9.15616C3.62887 9.01095 3.9817 8.54395 4.36196 9.1797C4.73831 9.8076 4.311 10.0117 3.89937 10.3217C1.65697 11.9974 0.845472 14.2068 1.58248 16.6007C2.05292 18.1233 3.00555 19.2692 4.43253 19.9874C4.91472 20.2307 5.31459 20.4544 5.03625 21.0744C4.68735 21.8593 4.15419 21.3335 3.83664 21.1255C2.62528 20.3288 2.59784 21.098 2.61352 21.9771C2.63704 23.2799 3.13492 24.3827 4.16203 25.1676C4.70303 25.5835 5.54589 26.647 5.73406 24.8536C5.77326 24.4847 6.05552 24.4141 6.39267 24.4926C6.76509 24.5828 6.91014 24.7634 6.96895 25.1911C7.43546 28.6524 9.40736 29.5864 12.277 27.6752C12.818 27.3142 13.606 26.9728 13.9157 27.2553C14.3156 27.6242 13.3668 28.4405 13.1669 28.6642C11.4733 30.5753 8.23912 30.4144 6.58868 28.2796C6.14569 27.7066 5.67134 27.3691 4.99313 27.1258C2.30774 26.1722 0.790588 23.4212 1.43743 20.6702C1.61777 19.905 1.55896 19.3399 1.11989 18.6413C-0.295329 16.3927 -0.358053 14.0184 0.908197 11.6717C1.22574 11.083 1.33551 10.5375 1.31199 9.87039C1.19438 6.90749 2.43319 4.66276 5.05977 3.25391C5.60077 2.96351 5.9732 2.60247 6.31034 2.0923C7.45898 0.334185 9.37208 -0.368277 11.2773 0.185059C13.1512 0.730545 14.3665 2.37878 14.4332 4.48616C14.4567 5.22002 14.4253 5.9578 14.441 6.69165C14.4528 7.19005 14.3783 7.56286 13.7471 7.54717C13.0924 7.53147 13.1042 7.09979 13.1042 6.63671C13.1042 5.75373 13.1473 4.86683 13.0532 3.99562C12.8729 2.34346 11.3714 1.15045 9.77587 1.3035C8.11759 1.4644 6.79646 3.0106 6.95719 4.65491C7.01599 5.25926 7.44722 6.02844 6.49067 6.17756C5.60469 6.31492 5.89087 5.38877 5.66349 4.92961C5.62037 4.8472 5.56941 4.76872 5.42436 4.52541H5.42044Z" fill="#050505"/>
<path d="M27.4291 9.46606C27.3703 7.57059 26.6921 6.17352 25.3906 5.06685C24.8378 4.59592 24.3988 4.39578 24.2341 5.39257C24.1714 5.77716 24.1675 6.35011 23.4736 6.15782C22.8267 5.97337 22.9326 5.52992 22.9953 4.99621C23.2344 2.96731 22.0074 1.40149 20.157 1.29161C18.4007 1.18565 17.0012 2.57095 16.9149 4.53313C16.8836 5.26699 16.8993 6.00477 16.911 6.73863C16.9149 7.17031 16.8679 7.5235 16.3112 7.5392C15.8094 7.55489 15.6095 7.3312 15.6252 6.83673C15.6604 5.71044 15.5193 4.55275 15.731 3.46571C16.0799 1.69189 17.2403 0.498887 19.0397 0.126073C20.8783 -0.25459 22.47 0.286972 23.5402 1.87241C23.995 2.55133 24.5281 2.99478 25.2181 3.40292C27.7114 4.8824 28.9188 7.10752 28.6875 10.0233C28.6405 10.6041 28.762 11.0476 29.0325 11.5381C30.3811 13.983 30.3184 16.424 28.8247 18.7746C28.4445 19.3712 28.4014 19.846 28.5582 20.5171C29.2442 23.4643 27.7623 26.1721 24.9045 27.1689C24.1949 27.4161 23.7872 27.8556 23.3481 28.3933C21.7565 30.3319 18.8398 30.5438 17.0796 28.8681C16.8013 28.6052 15.6997 27.8321 16.1309 27.2944C16.4994 26.8392 17.4089 27.3572 17.8754 27.8125C18.8476 28.7661 20.0316 28.9466 21.2625 28.3854C22.4935 27.8242 23.1051 26.8039 23.0502 25.4421C23.0306 24.9359 23.0933 24.5906 23.6696 24.4807C24.2929 24.3629 24.3007 24.8221 24.336 25.1871C24.4262 26.1995 24.9515 25.8307 25.4023 25.5246C26.7039 24.6416 27.4095 23.4211 27.433 21.8239C27.4487 20.9448 27.2684 20.47 26.2844 21.0743C25.959 21.2745 25.5121 21.7375 25.1279 21.2705C24.6457 20.6858 24.9201 20.3444 25.5827 19.9677C29.4716 17.77 29.7774 13.0647 26.2452 10.3883C25.8375 10.0783 25.2063 9.91736 25.6611 9.1835C26.1119 8.4575 26.4804 9.11679 26.8842 9.23452C27.0214 9.27376 27.1469 9.3444 27.4252 9.46606H27.4291Z" fill="#050505"/>
<path d="M21.2583 15.325C21.2426 16.5808 20.7918 18.0877 19.5883 19.2062C18.4396 20.2736 18.0241 21.5098 18.1377 23.0207C18.1848 23.6525 18.1652 24.2961 17.9221 24.9043C17.3968 26.219 16.0639 27.0039 14.6252 26.8351C13.1512 26.6625 11.8575 25.5205 11.9359 24.0135C12.0496 21.8041 11.3321 20.1402 9.88948 18.4605C8.15672 16.4395 8.39977 13.3314 10.0189 11.224C11.681 9.05777 14.4174 8.20618 16.9734 9.05384C19.5294 9.90151 21.2426 12.2561 21.2583 15.325V15.325ZM16.2482 22.4398C16.8049 22.4398 16.8519 22.1141 16.8793 21.6824C16.9695 20.3953 17.585 19.3867 18.4984 18.4959C19.651 17.3735 20.1645 15.9686 19.9332 14.3596C19.6196 12.1659 17.9339 10.4274 15.8601 10.082C13.7745 9.73276 11.6928 10.7452 10.6618 12.6093C9.59938 14.5323 9.86988 16.7495 11.4537 18.4291C12.2769 19.3043 13.061 20.1951 13.0688 21.4548C13.0767 22.4987 13.6059 22.4516 14.3821 22.4516M16.7853 24.2215C16.7421 24.1195 16.7186 23.9743 16.6363 23.8801C16.4677 23.6878 13.4765 23.7153 13.3628 23.9115C13.2962 24.0214 13.2727 24.2019 13.3119 24.3235C13.5785 25.1673 14.2057 25.5872 15.0525 25.5754C15.9071 25.5597 16.4795 25.0692 16.7853 24.2215V24.2215Z" fill="#050505"/>
<path d="M8.34741 11.75C8.08475 12.1856 8.03378 12.8253 7.56335 12.5781C6.90866 12.2406 5.79922 12.4721 5.70906 11.3458C5.68554 11.0711 5.86587 10.5531 6.2971 10.7022C7.01843 10.9534 7.84561 11.0907 8.34741 11.7461V11.75Z" fill="#050505"/>
<path d="M22.4026 21.5612C22.2654 21.985 21.9322 22.4442 21.6381 22.3382C20.9011 22.0713 20.3366 21.4513 20.0034 20.7567C19.8662 20.4702 20.3758 19.909 20.713 20.0228C21.4617 20.274 21.8969 20.9804 22.3987 21.5612H22.4026Z" fill="#050505"/>
<path d="M22.4919 12.6254C21.9235 12.594 21.7353 12.1231 21.8333 11.8209C22.1077 10.9614 23.0525 10.9889 23.719 10.7221C24.1659 10.5415 24.405 11.2322 24.3227 11.5069C24.0522 12.3821 23.0408 12.1662 22.4919 12.6293V12.6254Z" fill="#050505"/>
<path d="M22.5035 17.3813C23.0445 17.8209 24.0402 17.6364 24.3382 18.488C24.4205 18.7235 24.197 19.4259 23.7188 19.269C23.0288 19.0414 22.1428 18.9668 21.8135 18.1858C21.6959 17.9072 21.9194 17.4167 22.5035 17.3813V17.3813Z" fill="#050505"/>
<path d="M6.4189 19.2691C5.79558 19.3201 5.62701 18.7864 5.70541 18.5235C5.96415 17.6523 6.89718 17.6876 7.56362 17.4207C8.0419 17.2284 8.30063 17.8681 8.21831 18.1428C7.95957 19.0219 6.97166 18.861 6.4189 19.2691Z" fill="#050505"/>
<path d="M23.7083 15.6587C23.1908 15.5449 22.3558 15.9334 22.4695 14.913C22.5753 13.9555 23.3751 14.4382 23.8573 14.3989C24.2924 14.3597 25.0451 14.0654 25.0138 15.0072C24.9785 16.0315 24.1591 15.4821 23.7122 15.6587H23.7083Z" fill="#050505"/>
<path d="M10.0968 20.7369C9.60675 21.3727 9.14024 22.028 8.43459 22.3302C8.12489 22.4636 7.60741 21.9299 7.71326 21.6317C7.972 20.9057 8.56396 20.3288 9.27353 20.0462C9.64595 19.8971 9.86549 20.419 10.0968 20.7408V20.7369Z" fill="#050505"/>
<path d="M21.6616 7.60596C21.9831 7.86104 22.528 8.10043 22.3202 8.46147C21.9478 9.10506 21.446 9.78005 20.6737 9.9645C20.3797 10.0351 19.8701 9.56814 20.0582 9.1914C20.3993 8.51249 20.9756 7.97877 21.6616 7.60596V7.60596Z" fill="#050505"/>
<path d="M9.21835 10.0351C8.62639 9.56419 7.94818 9.11681 7.69336 8.37511C7.59144 8.07293 8.08147 7.53137 8.42645 7.68442C9.12818 7.99052 9.73191 8.5674 10.0102 9.28948C10.1161 9.56027 9.66526 9.92131 9.21835 10.0312V10.0351Z" fill="#050505"/>
<path d="M6.25882 14.3599C6.72141 14.56 7.57211 13.9831 7.55643 15.0152C7.54075 16.0042 6.73317 15.5921 6.25098 15.6157C5.75702 15.6392 4.98081 15.9257 5.05137 14.9171C5.11802 13.9792 5.87071 14.5836 6.26274 14.3599H6.25882Z" fill="#050505"/>
<path d="M12.0918 14.6895V15.9531H18.0389V14.6895" fill="#050505"/>
<path d="M14.4355 18.3H15.694V12.3428H14.4355" fill="#050505"/>
</svg>
